<?xml version="1.0" standalone="no"?>
<!DOCTYPE svg PUBLIC "-//W3C//DTD SVG 20010904//EN"
 "http://www.w3.org/TR/2001/REC-SVG-20010904/DTD/svg10.dtd">
<svg version="1.0" xmlns="http://www.w3.org/2000/svg"
 width="180.000000pt" height="180.000000pt" viewBox="0 0 180.000000 180.000000"
 preserveAspectRatio="xMidYMid meet">
<metadata>
Created by potrace 1.11, written by Peter Selinger 2001-2013
</metadata>
<g transform="translate(0.000000,180.000000) scale(0.100000,-0.100000)"
fill="#000000" stroke="none">
<path d="M640 1490 c-74 -13 -156 -49 -222 -97 -105 -76 -158 -147 -200 -267
-23 -68 -28 -97 -28 -183 0 -125 27 -215 96 -316 106 -155 264 -237 457 -237
101 0 161 12 197 41 l25 19 -30 -11 c-40 -14 -147 -3 -208 23 -72 31 -130 107
-139 185 -3 28 -2 28 62 34 36 4 86 7 113 8 45 1 48 0 54 -30 8 -41 56 -87 99
-95 42 -8 110 10 118 31 3 8 10 15 16 15 6 0 3 -11 -6 -25 -8 -13 -13 -29 -9
-34 3 -6 -4 -21 -15 -33 -12 -13 -27 -30 -35 -39 -21 -22 -19 -28 8 -21 28 7
95 52 126 86 15 16 28 22 35 17 6 -4 33 -14 59 -22 61 -18 79 -36 52 -55 -26
-19 -42 -18 -62 6 -21 24 -83 28 -83 5 0 -21 35 -53 65 -61 15 -4 47 -4 73 -1
52 6 92 41 92 82 0 27 -40 63 -79 71 -46 10 -73 24 -69 37 7 18 43 20 58 2 15
-18 66 -20 76 -3 10 15 -41 58 -70 58 -32 0 -38 10 -23 34 47 72 67 224 43
334 -65 307 -340 495 -646 442z m-71 -129 c16 -10 8 -41 -11 -41 -7 0 -19 4
-27 9 -12 8 -12 12 -2 25 15 18 21 19 40 7z m-69 -84 c0 -34 -62 -52 -74 -22
-3 9 3 24 14 35 16 16 25 18 40 10 11 -6 20 -16 20 -23z m501 -127 c98 -18
107 -25 106 -78 0 -26 -4 -52 -9 -59 -6 -7 -5 -20 2 -32 9 -18 7 -23 -15 -31
-39 -15 -53 -12 -66 13 -20 38 -51 57 -99 57 -47 0 -90 -21 -90 -44 0 -25 39
-48 117 -68 86 -22 163 -54 163 -67 0 -5 -7 -12 -16 -15 -9 -3 -13 -13 -10
-23 2 -10 8 -34 12 -53 6 -32 5 -34 -11 -20 -17 14 -18 13 -13 -7 3 -12 0 -30
-7 -40 -13 -17 -14 -17 -32 0 -11 9 -51 24 -89 33 -205 47 -282 86 -314 157
-83 181 111 325 371 277z m147 -487 c-8 -10 -20 -27 -26 -38 -10 -17 -11 -17
-12 -3 0 10 10 26 22 38 27 25 37 26 16 3z"/>
<path d="M1428 664 c-55 -29 -73 -105 -41 -171 36 -76 172 -86 218 -16 19 28
14 39 -19 45 -18 4 -31 -2 -45 -18 -24 -28 -38 -30 -69 -8 -17 12 -22 25 -22
58 0 65 42 95 86 61 10 -8 31 -15 47 -15 21 0 27 5 27 20 0 49 -120 78 -182
44z"/>
</g>
</svg>
